<!-- Flower Company — preload leaf mark, OPEN state.
     Exact geometry from Figma "Storyboard" node 64:1833 (beat 2).
     Source uses white fill + mix-blend-exclusion (black on white); here the fill is
     `currentColor` so the preload overlay controls the colour via CSS. viewBox preserved. -->
<svg viewBox="0 0 56.345 87.8564" fill="none" xmlns="http://www.w3.org/2000/svg" aria-hidden="true">
  <path fill="currentColor" d="M34.4419 0C48.063 8.39556 56.1139 22.1615 56.3169 38.0547C56.7144 53.2067 52.8473 66.7027 47.48 75.665C46.9679 69.4141 46.0415 61.4721 44.6998 52.7979C43.0135 41.0284 40.6297 30.61 38.1138 23.958C37.5578 30.7147 38.3877 41.1588 40.5415 52.876V52.8672C41.7862 59.2575 42.8108 65.1688 44.4263 70.1992C44.8892 71.6512 45.2036 72.6789 45.5035 73.8076C45.7076 74.5677 45.8901 75.3189 46.0542 76.0596C46.0614 76.0907 46.0695 76.1218 46.0767 76.1533C46.0757 76.1524 46.0748 76.1514 46.0738 76.1504C46.9709 80.2353 47.2701 84.0078 47.0562 87.2988C44.7344 82.2597 41.3184 75.921 36.9839 69.1123C30.4779 60.0715 23.5125 52.2507 18.1187 47.4033C21.6409 52.6952 27.6438 60.7773 34.4234 69.792C39.0492 76.7143 43.1722 83.0091 46.3501 87.8564C37.9902 82.1809 27.4317 72.5902 17.4917 60.9951C6.05102 49.2342 -0.428305 37.8484 0.022016 29.54C8.82088 32.5347 17.3937 37.1621 24.772 42.998C24.2923 41.6898 23.841 40.3642 23.4244 39.0225C18.8606 23.5825 23.0806 9.51152 34.4419 0Z"/>
</svg>
