<!-- Flower Company — preload leaf mark, CLOSED state.
     Exact geometry from Figma "Storyboard" node 64:1822 (beat 1).
     Source uses white fill + mix-blend-exclusion (black on white); here the fill is
     `currentColor` so the preload overlay controls the colour via CSS. viewBox preserved. -->
<svg viewBox="0 0 52.9276 74.3467" fill="none" xmlns="http://www.w3.org/2000/svg" aria-hidden="true">
  <path fill="currentColor" d="M26.0933 0C40.5774 6.79971 50.1355 19.5657 52.1363 35.334C54.2464 50.3437 51.9321 64.1908 47.6138 73.7031C47.4589 72.9198 47.2939 72.1097 47.1197 71.2754C47.1119 71.8255 47.0914 72.3644 47.0572 72.8906C45.5904 69.7071 43.6862 66.0048 41.3902 61.9932C42.1978 64.3466 43.0347 66.5673 43.9605 68.6172C44.5748 69.9852 44.9994 70.9614 45.4185 72.0283C45.7372 72.5144 46.0491 72.9876 46.3511 73.4482C46.1743 73.3282 45.9967 73.2055 45.8179 73.082C45.9616 73.4711 46.1124 73.8863 46.274 74.3467C43.7582 72.3849 41.2205 70.1542 38.729 67.6826C32.0203 62.1405 24.5985 54.8759 17.4927 46.5869C6.05192 34.8259 -0.42831 23.4403 0.0220133 15.1318C5.58906 17.0265 11.0653 19.5761 16.2066 22.6699C16.5674 14.2543 19.9543 6.4546 26.0933 0ZM32.4546 23.3877C32.5745 27.2137 33.2665 32.1576 34.4703 37.7891C35.5457 39.0252 36.5685 40.2933 37.5318 41.5918C39.1291 44.1233 40.5056 46.6391 41.6783 49.1104C38.8013 38.5212 35.4996 29.3081 32.4546 23.3877Z"/>
</svg>
