<svg width="121.407" height="40" viewBox="0 0 121.407 40" fill="none" xmlns="http://www.w3.org/2000/svg">
<g id="Logo">
<path id="Vector" d="M15.5149 31.6349C12.4594 27.5488 9.75375 23.8855 8.16629 21.4869C10.5973 23.684 13.7365 27.2288 16.6688 31.3267C18.6224 34.413 20.1621 37.2859 21.2085 39.57C21.4512 35.8158 20.2378 30.6786 16.9155 25.3833C12.893 19.9298 6.59067 15.6422 0.00992232 13.3898C-0.19304 17.1558 2.72736 22.3167 7.8838 27.6477C12.3638 32.9034 17.1224 37.2504 20.8902 39.8229C19.4579 37.6258 17.5998 34.7726 15.5149 31.6349Z" fill="var(--fill-0, white)"/>
<path id="Vector_2" d="M18.274 23.9673C17.3032 18.6561 16.9292 13.922 17.1798 10.8594C18.3137 13.8745 19.388 18.5968 20.148 23.9317C20.7527 27.8636 21.1705 31.4637 21.4013 34.2971C23.8203 30.2347 25.563 24.1174 25.3839 17.2493C25.2925 10.0453 21.6638 3.80551 15.5247 0C10.4041 4.31134 8.50224 10.6894 10.5592 17.688C12.6799 24.556 16.6944 30.4994 20.7686 34.5184C20.526 33.4475 20.3628 32.8863 20.0246 31.8193C19.2965 29.5392 18.8349 26.8599 18.274 23.9633V23.9673Z" fill="var(--fill-0, white)"/>
<path id="Vector_3" d="M35.297 16.9285V3.66434H43.719V5.50244H37.5579V9.38687H42.5886V11.1871H37.5579V16.9285H35.297ZM45.5806 16.9285V3.28543H47.8415V16.9285H45.5806ZM54.7921 17.1559C53.8878 17.1559 53.0713 16.9475 52.3428 16.5306C51.6268 16.1011 51.0616 15.5137 50.6471 14.7684C50.2452 14.0104 50.0441 13.1451 50.0441 12.1724C50.0441 11.1744 50.2515 10.3028 50.666 9.55746C51.0804 8.79946 51.6457 8.21206 52.3616 7.79525C53.0902 7.36569 53.9066 7.15095 54.811 7.15095C55.7154 7.15095 56.5256 7.36569 57.2415 7.79525C57.9701 8.21206 58.5353 8.79323 58.9372 9.53847C59.3517 10.2838 59.5589 11.1555 59.5589 12.1535C59.5589 13.1514 59.3517 14.0231 58.9372 14.7684C58.5228 15.5137 57.9512 16.1011 57.2227 16.5306C56.5067 16.9475 55.6966 17.1559 54.7921 17.1559ZM54.7921 15.2042C55.2444 15.2042 55.6526 15.0905 56.0169 14.8631C56.3937 14.6357 56.6951 14.2947 56.9212 13.8399C57.1473 13.3851 57.2604 12.8229 57.2604 12.1535C57.2604 11.4839 57.1473 10.9281 56.9212 10.486C56.7077 10.0312 56.4125 9.69007 56.0357 9.46267C55.6714 9.23536 55.2632 9.12166 54.811 9.12166C54.3714 9.12166 53.9632 9.23536 53.5863 9.46267C53.2095 9.69007 52.908 10.0312 52.682 10.486C52.4559 10.9281 52.3428 11.4839 52.3428 12.1535C52.3428 12.8229 52.4559 13.3851 52.682 13.8399C52.908 14.2947 53.2032 14.6357 53.5675 14.8631C53.9443 15.0905 54.3525 15.2042 54.7921 15.2042ZM63.3252 16.9285L60.5367 7.37835H62.7788L64.7194 15.2231L64.3049 15.2042L66.4716 7.37835H68.9964L71.1819 15.2042H70.7674L72.708 7.37835H74.9501L72.1617 16.9285H69.8254L67.5079 8.83736H67.9789L65.6614 16.9285H63.3252ZM80.6809 17.1559C79.7388 17.1559 78.9098 16.9538 78.1939 16.5496C77.4779 16.1327 76.9189 15.5516 76.5169 14.8063C76.115 14.061 75.9141 13.2019 75.9141 12.2293C75.9141 11.2186 76.1087 10.3344 76.4981 9.57637C76.9001 8.81846 77.4591 8.22472 78.175 7.79525C78.9035 7.36569 79.745 7.15095 80.6997 7.15095C81.6292 7.15095 82.4394 7.35936 83.1302 7.77626C83.821 8.19316 84.3549 8.75533 84.7316 9.46267C85.1084 10.1575 85.2973 10.9407 85.2973 11.8124C85.2973 11.9386 85.2973 12.0777 85.2973 12.2293C85.2973 12.3808 85.2842 12.5387 85.2597 12.703H77.5343V11.2439H83.0171C82.9921 10.5491 82.7596 10.0059 82.32 9.61427C81.8804 9.21003 81.334 9.00796 80.6809 9.00796C80.2161 9.00796 79.789 9.11533 79.3997 9.33006C79.0102 9.5448 78.7026 9.8669 78.4764 10.2965C78.2503 10.7134 78.1373 11.2439 78.1373 11.8882V12.4377C78.1373 13.0314 78.244 13.543 78.4576 13.9725C78.6837 14.4021 78.9852 14.7305 79.362 14.9579C79.7513 15.1726 80.1847 15.28 80.662 15.28C81.1896 15.28 81.6229 15.1663 81.9621 14.9389C82.3137 14.7115 82.5712 14.4084 82.7346 14.0294H85.0332C84.8575 14.6231 84.5684 15.16 84.1665 15.64C83.7645 16.1075 83.2683 16.48 82.678 16.758C82.0877 17.0233 81.422 17.1559 80.6809 17.1559ZM87.3845 16.9285V7.37835H89.4004L89.608 9.15956C89.8336 8.74266 90.1165 8.38889 90.4557 8.09836C90.795 7.79525 91.1906 7.56152 91.6426 7.39726C92.1069 7.23308 92.6163 7.15095 93.1688 7.15095V9.55746H92.3775C92.0007 9.55746 91.6426 9.60794 91.3034 9.70907C90.9641 9.79744 90.669 9.94904 90.4181 10.1638C90.1794 10.3659 89.9905 10.6501 89.8524 11.0165C89.7142 11.3702 89.6456 11.8187 89.6456 12.3619V16.9285H87.3845ZM41.1565 36.0587C39.8503 36.0587 38.7198 35.7745 37.7652 35.206C36.8231 34.6249 36.0946 33.8228 35.5796 32.7995C35.0772 31.7636 34.826 30.5699 34.826 29.2181C34.826 27.8538 35.0772 26.6601 35.5796 25.6368C36.0946 24.601 36.8231 23.7925 37.7652 23.2114C38.7198 22.6303 39.8503 22.3398 41.1565 22.3398C42.7267 22.3398 44.0079 22.7314 45.0002 23.5146C45.9925 24.2852 46.6206 25.3779 46.8843 26.7927H44.3972C44.2214 26.0474 43.8634 25.46 43.3234 25.0305C42.7832 24.6009 42.0547 24.3862 41.1377 24.3862C40.3088 24.3862 39.5928 24.582 38.9898 24.9736C38.3995 25.3526 37.941 25.9085 37.6144 26.6411C37.3004 27.3612 37.1434 28.2202 37.1434 29.2181C37.1434 30.2161 37.3004 31.0752 37.6144 31.7953C37.941 32.5026 38.3995 33.0522 38.9898 33.4438C39.5928 33.8228 40.3088 34.0123 41.1377 34.0123C42.0547 34.0123 42.7832 33.8164 43.3234 33.4248C43.8634 33.0205 44.2214 32.4647 44.3972 31.7574H46.8843C46.633 33.0963 46.005 34.1512 45.0002 34.9218C44.0079 35.6797 42.7267 36.0587 41.1565 36.0587ZM53.449 36.0587C52.5446 36.0587 51.7281 35.8503 50.9996 35.4334C50.2837 35.0039 49.7184 34.4165 49.3039 33.6712C48.9019 32.9132 48.701 32.0479 48.701 31.0751C48.701 30.0772 48.9082 29.2056 49.3228 28.4602C49.7373 27.7022 50.3025 27.1148 51.0185 26.698C51.747 26.2685 52.5635 26.0537 53.4678 26.0537C54.3723 26.0537 55.1823 26.2685 55.8984 26.698C56.6269 27.1148 57.1921 27.696 57.5941 28.4412C58.0086 29.1866 58.2158 30.0583 58.2158 31.0562C58.2158 32.0542 58.0086 32.9258 57.5941 33.6712C57.1795 34.4165 56.6081 35.0039 55.8795 35.4334C55.1635 35.8503 54.3534 36.0587 53.449 36.0587ZM53.449 34.107C53.9012 34.107 54.3094 33.9933 54.6736 33.7659C55.0505 33.5385 55.352 33.1975 55.5781 32.7427C55.8042 32.2879 55.9171 31.7257 55.9171 31.0562C55.9171 30.3867 55.8042 29.8309 55.5781 29.3887C55.3646 28.9339 55.0694 28.5928 54.6925 28.3654C54.3283 28.1381 53.92 28.0244 53.4678 28.0244C53.0282 28.0244 52.62 28.1381 52.2431 28.3654C51.8664 28.5928 51.5649 28.9339 51.3388 29.3887C51.1127 29.8309 50.9996 30.3867 50.9996 31.0562C50.9996 31.7257 51.1127 32.2879 51.3388 32.7427C51.5649 33.1975 51.8601 33.5385 52.2243 33.7659C52.6012 33.9933 53.0094 34.107 53.449 34.107ZM60.4291 35.8313V26.2811H62.4262L62.6146 27.5885C62.9161 27.1085 63.3117 26.7359 63.8016 26.4706C64.304 26.1927 64.8756 26.0537 65.5162 26.0537C65.9935 26.0537 66.4206 26.1169 66.7973 26.2432C67.1868 26.3695 67.526 26.559 67.8148 26.8116C68.1163 27.0644 68.3612 27.3801 68.5496 27.7591C68.9013 27.2285 69.3598 26.8116 69.925 26.5085C70.4903 26.2053 71.1057 26.0537 71.7715 26.0537C72.5628 26.0537 73.2348 26.218 73.7875 26.5464C74.3401 26.8622 74.761 27.3359 75.0499 27.9675C75.3387 28.5865 75.4832 29.3508 75.4832 30.2603V35.8313H73.2411V30.4877C73.2411 29.6793 73.0778 29.0603 72.7512 28.6307C72.4246 28.2013 71.941 27.9865 71.3005 27.9865C70.8608 27.9865 70.4714 28.0939 70.1323 28.3086C69.8057 28.5234 69.5482 28.8392 69.3598 29.256C69.1714 29.6603 69.0771 30.1593 69.0771 30.753V35.8313H66.835V30.4877C66.835 29.6793 66.6718 29.0603 66.3452 28.6307C66.0187 28.2013 65.5288 27.9865 64.8756 27.9865C64.4611 27.9865 64.0842 28.0939 63.7452 28.3086C63.4185 28.5234 63.161 28.8392 62.9727 29.256C62.7842 29.6603 62.69 30.1593 62.69 30.753V35.8313H60.4291ZM77.8719 40V26.2811H79.8879L80.1328 27.6643C80.3338 27.3865 80.5725 27.1275 80.8488 26.8874C81.1377 26.6348 81.4832 26.4327 81.8851 26.2811C82.2995 26.1295 82.7706 26.0537 83.2981 26.0537C84.19 26.0537 84.975 26.2748 85.6535 26.7169C86.3442 27.1591 86.8846 27.7591 87.2736 28.517C87.6627 29.2624 87.8582 30.1151 87.8582 31.0751C87.8582 32.0352 87.6571 32.8943 87.2549 33.6522C86.8658 34.3975 86.3254 34.9849 85.6347 35.4145C84.9562 35.8439 84.1774 36.0587 83.2981 36.0587C82.5822 36.0587 81.9542 35.9261 81.4141 35.6608C80.8865 35.3828 80.4595 34.9912 80.1328 34.486V40H77.8719ZM82.8271 34.0881C83.3547 34.0881 83.8257 33.9617 84.2403 33.7091C84.6545 33.4564 84.975 33.1027 85.2015 32.6479C85.4402 32.1932 85.5595 31.6689 85.5595 31.0751C85.5595 30.4687 85.4402 29.9382 85.2015 29.4834C84.975 29.0286 84.6545 28.675 84.2403 28.4223C83.8257 28.1697 83.3547 28.0433 82.8271 28.0433C82.287 28.0433 81.8097 28.1697 81.3952 28.4223C80.9933 28.675 80.673 29.0286 80.4343 29.4834C80.2082 29.9382 80.0952 30.4625 80.0952 31.0562C80.0952 31.6626 80.2082 32.1932 80.4343 32.6479C80.673 33.0901 80.9933 33.4438 81.3952 33.7091C81.8097 33.9617 82.287 34.0881 82.8271 34.0881ZM93.2177 36.0587C92.4386 36.0587 91.7921 35.9261 91.2771 35.6608C90.7621 35.3955 90.3787 35.0418 90.1277 34.5997C89.8768 34.1575 89.7509 33.6775 89.7509 33.1596C89.7509 32.5532 89.9013 32.0289 90.2029 31.5868C90.5168 31.1446 90.9754 30.8035 91.5787 30.5635C92.1811 30.3109 92.9226 30.1845 93.8022 30.1845H96.1949C96.1949 29.6793 96.1254 29.2624 95.9872 28.9339C95.8491 28.5928 95.6357 28.3402 95.3472 28.176C95.0578 28.0118 94.6875 27.9296 94.2355 27.9296C93.7205 27.9296 93.2807 28.0497 92.916 28.2896C92.5523 28.517 92.3259 28.8708 92.2385 29.3508H90.015C90.0901 28.6686 90.3166 28.0876 90.6935 27.6075C91.0703 27.1148 91.5656 26.7359 92.1811 26.4706C92.8098 26.1927 93.494 26.0537 94.2355 26.0537C95.1273 26.0537 95.8867 26.2117 96.5154 26.5274C97.1431 26.8306 97.6205 27.2728 97.9466 27.8538C98.2859 28.4223 98.456 29.1108 98.456 29.9192V35.8313H96.5342L96.3077 34.2965C96.1817 34.5491 96.0192 34.7828 95.8181 34.9976C95.6292 35.2123 95.4093 35.4018 95.1583 35.5661C94.9074 35.7176 94.618 35.8376 94.2919 35.9261C93.978 36.0144 93.6199 36.0587 93.2177 36.0587ZM93.7261 34.2586C94.0908 34.2586 94.4112 34.1954 94.6875 34.0691C94.976 33.9301 95.2213 33.7406 95.4224 33.5006C95.6357 33.2479 95.7993 32.9701 95.912 32.6669C96.0248 32.3637 96.1009 32.0416 96.1385 31.7005V31.6626H94.0466C93.6068 31.6626 93.2431 31.7195 92.9536 31.8332C92.6651 31.9468 92.4574 32.1047 92.3324 32.3069C92.2065 32.4964 92.1435 32.7237 92.1435 32.989C92.1435 33.2543 92.2065 33.4817 92.3324 33.6712C92.4574 33.8607 92.6397 34.0059 92.8784 34.107C93.1172 34.208 93.4 34.2586 93.7261 34.2586ZM100.871 35.8313V26.2811H102.868L103.038 27.8728C103.327 27.317 103.741 26.8749 104.282 26.5464C104.822 26.218 105.462 26.0537 106.203 26.0537C106.969 26.0537 107.623 26.218 108.163 26.5464C108.703 26.8622 109.118 27.3296 109.406 27.9486C109.708 28.5676 109.858 29.3382 109.858 30.2603V35.8313H107.598V30.4688C107.598 29.6729 107.421 29.0603 107.07 28.6307C106.718 28.2013 106.197 27.9865 105.506 27.9865C105.054 27.9865 104.646 28.0939 104.282 28.3086C103.93 28.5234 103.647 28.8392 103.434 29.256C103.233 29.6603 103.132 30.153 103.132 30.7341V35.8313H100.871ZM113.079 40L115.396 34.7702H114.832L111.044 26.2811H113.512L116.338 32.7616L119.013 26.2811H121.407L115.471 40H113.079Z" fill="var(--fill-0, white)"/>
</g>
</svg>
